HIERARCHY
ROOT Hips
{
 OFFSET 0.000000 0.000000 0.000000
 CHANNELS 6 Xposition Yposition Zposition Yrotation Xrotation Zrotation
 JOINT Chest
 {
  OFFSET 0.000000 13.173100 -0.061900
  CHANNELS 3 Yrotation Xrotation Zrotation
  JOINT Chest2
  {
   OFFSET 0.000000 8.040800 0.126200
   CHANNELS 3 Yrotation Xrotation Zrotation
   JOINT Chest3
   {
    OFFSET 0.000000 7.994400 0.000000
    CHANNELS 3 Yrotation Xrotation Zrotation
    JOINT Chest4
    {
     OFFSET 0.000000 7.986200 0.000000
     CHANNELS 3 Yrotation Xrotation Zrotation
     JOINT Neck
     {
      OFFSET 0.000000 12.259400 0.000000
      CHANNELS 3 Yrotation Xrotation Zrotation
      JOINT Head
      {
       OFFSET 0.000000 7.518700 0.267100
       CHANNELS 3 Yrotation Xrotation Zrotation
       End Site
       {
        OFFSET 0.000000 13.617700 0.141000
       }
      }
     }
     JOINT RightCollar
     {
      OFFSET -2.983800 8.314300 0.000000
      CHANNELS 3 Yrotation Xrotation Zrotation
      JOINT RightShoulder
      {
       OFFSET -16.133400 0.000000 0.000000
       CHANNELS 3 Yrotation Xrotation Zrotation
       JOINT RightElbow
       {
        OFFSET 0.000000 -29.822100 0.000000
        CHANNELS 3 Yrotation Xrotation Zrotation
        JOINT RightWrist
        {
         OFFSET 0.000000 -24.437700 0.010900
         CHANNELS 3 Yrotation Xrotation Zrotation
         End Site
         {
          OFFSET 0.000000 -18.312300 0.000000
         }
        }
       }
      }
     }
     JOINT LeftCollar
     {
      OFFSET 2.983800 8.314300 0.000000
      CHANNELS 3 Yrotation Xrotation Zrotation
      JOINT LeftShoulder
      {
       OFFSET 16.133400 0.000000 0.000000
       CHANNELS 3 Yrotation Xrotation Zrotation
       JOINT LeftElbow
       {
        OFFSET 0.000000 -29.822100 0.000000
        CHANNELS 3 Yrotation Xrotation Zrotation
        JOINT LeftWrist
        {
         OFFSET 0.000000 -24.437700 0.010900
         CHANNELS 3 Yrotation Xrotation Zrotation
         End Site
         {
          OFFSET 0.000000 -18.312300 0.000000
         }
        }
       }
      }
     }
    }
   }
  }
 }
 JOINT RightHip
 {
  OFFSET -11.206700 0.306200 0.030900
  CHANNELS 3 Yrotation Xrotation Zrotation
  JOINT RightKnee
  {
   OFFSET 0.000000 -57.334900 0.009400
   CHANNELS 3 Yrotation Xrotation Zrotation
   JOINT RightAnkle
   {
    OFFSET 0.000000 -43.376200 0.036600
    CHANNELS 3 Yrotation Xrotation Zrotation
    JOINT RightToe
    {
     OFFSET 0.000000 -10.035500 18.363100
     CHANNELS 3 Yrotation Xrotation Zrotation
     End Site
     {
      OFFSET 0.000000 -1.618500 7.239000
     }
    }
   }
  }
 }
 JOINT LeftHip
 {
  OFFSET 11.206700 0.306200 0.030900
  CHANNELS 3 Yrotation Xrotation Zrotation
  JOINT LeftKnee
  {
   OFFSET 0.000000 -57.334900 0.009400
   CHANNELS 3 Yrotation Xrotation Zrotation
   JOINT LeftAnkle
   {
    OFFSET 0.000000 -43.376200 0.036600
    CHANNELS 3 Yrotation Xrotation Zrotation
    JOINT LeftToe
    {
     OFFSET 0.000000 -10.035500 18.363100
     CHANNELS 3 Yrotation Xrotation Zrotation
     End Site
     {
      OFFSET 0.000000 -1.618500 7.239000
     }
    }
   }
  }
 }
}
MOTION
Frames: 16
Frame Time: 0.008333
-97.023955 67.607222 84.453231 171.618789 -37.854020 -3.553952 2.153303 19.262759 1.845202 0.242109 2.277523 0.180177 0.395082 3.783797 0.329734 1.952252 16.642125 1.718486 1.105434 14.158630 -1.211364 2.603252 -9.279125 -2.640633 -4.408141 2.437009 -4.261720 -2.410253 -7.113097 5.997702 70.734272 -87.768352 -56.447071 -0.123747 -11.435639 -13.051457 -2.359741 1.540059 -0.751777 10.040934 -1.702708 1.857694 128.730927 -79.603879 -146.849265 -6.146631 -4.925237 6.597477 -2.104222 -48.488564 8.880069 -100.867480 82.720060 -95.922417 0.157342 0.354941 -3.520232 0.088997 -2.163705 -0.106195 -6.986702 -38.662034 5.560776 64.656336 83.191544 54.976788 -2.675324 -10.704278 7.252678 0.033695 -0.014864 0.067994
-97.037425 67.605788 84.478532 171.612317 -37.876585 -3.522268 2.146064 19.306927 1.831504 0.239215 2.302466 0.196348 0.398597 3.773115 0.318833 1.951314 16.660149 1.729360 1.144432 14.239473 -1.198674 2.626989 -9.259030 -2.674845 -4.399815 2.401165 -4.279632 -2.413497 -7.119279 5.994345 70.477896 -87.771496 -56.201318 -0.116674 -11.435090 -13.029141 -2.360105 1.526384 -0.755718 10.041692 -1.712272 1.865396 128.395622 -79.578566 -146.523415 -6.149661 -4.890526 6.582713 -2.200982 -48.216948 8.862186 -102.855752 82.643174 -97.962276 0.103057 0.422100 -3.517811 0.067152 -2.197928 -0.096641 -6.947197 -38.644317 5.523960 64.605399 83.149207 54.917395 -2.712028 -10.687662 7.240871 0.027063 -0.015956 0.083736
-97.049551 67.608395 84.496556 171.626023 -37.942426 -3.495333 2.126661 19.396768 1.814092 0.237558 2.314548 0.202302 0.396231 3.774897 0.315128 1.950450 16.676564 1.742180 1.165897 14.283917 -1.196799 2.650459 -9.229123 -2.696800 -4.379027 2.373663 -4.284486 -2.415300 -7.118740 5.990427 70.704371 -87.756239 -56.447084 -0.117906 -11.446174 -13.013379 -2.358207 1.512491 -0.761876 10.036719 -1.736295 1.864191 128.045149 -79.566572 -146.130304 -6.080553 -4.833030 6.484125 -2.266247 -47.890649 8.793023 -104.426726 82.597934 -99.549979 0.074381 0.510458 -3.572543 0.039103 -2.202472 -0.060344 -6.889367 -38.590052 5.469418 64.492896 83.146132 54.819280 -2.761825 -10.659020 7.220664 0.075366 -0.049540 0.088617
-97.065107 67.602059 84.522355 171.707173 -37.960700 -3.487022 2.045642 19.443423 1.773615 0.236527 2.313010 0.198563 0.395062 3.825003 0.346618 1.937151 16.655708 1.725761 1.179535 14.312890 -1.200382 2.676520 -9.174665 -2.707736 -4.357814 2.351390 -4.293877 -2.418766 -7.131889 5.977972 70.578227 -87.744859 -56.342095 -0.142815 -11.460501 -13.018320 -2.353881 1.500698 -0.768136 10.023270 -1.763351 1.863340 127.786334 -79.549338 -145.770014 -6.042891 -4.831899 6.373749 -2.320065 -47.605679 8.656632 -105.661568 82.594914 -100.763564 0.075462 0.564754 -3.685879 -0.009157 -2.125048 -0.000390 -6.873665 -38.588761 5.401245 64.769374 83.024807 55.088770 -2.920236 -10.602414 7.189255 0.091809 -0.061834 0.126831
-97.074706 67.599822 84.540596 171.826124 -38.023879 -3.506520 1.940241 19.535474 1.739644 0.235623 2.317305 0.200065 0.393637 3.831697 0.349015 1.930238 16.668633 1.734388 1.191884 14.344955 -1.201451 2.699153 -9.114547 -2.713441 -4.327188 2.367061 -4.281931 -2.425484 -7.177459 5.948164 70.560846 -87.730099 -56.352279 -0.143123 -11.477602 -13.021426 -2.347069 1.488908 -0.772360 10.000129 -1.787791 1.863672 127.487049 -79.546337 -145.399562 -6.022943 -4.844155 6.311735 -2.360196 -47.272819 8.503288 -106.536450 82.632869 -101.588588 0.099002 0.597457 -3.820520 -0.076980 -1.975008 0.053746 -6.884406 -38.541930 5.333466 64.999393 82.934647 55.324238 -3.061682 -10.561346 7.137488 0.119201 -0.069694 0.171133
-97.079854 67.598273 84.554635 171.927942 -38.112128 -3.514022 1.848736 19.645561 1.698870 0.237020 2.332115 0.211468 0.391615 3.831868 0.345978 1.921460 16.660592 1.726633 1.207402 14.399131 -1.183146 2.716702 -9.051057 -2.713251 -4.309254 2.396209 -4.272669 -2.423826 -7.215986 5.934095 70.606231 -87.718364 -56.421012 -0.142931 -11.483592 -13.024084 -2.338676 1.498454 -0.757523 9.982122 -1.812019 1.845570 127.242184 -79.576516 -145.146225 -6.019625 -4.861913 6.310620 -2.341594 -46.895994 8.337225 -106.993405 82.759547 -101.986124 0.036029 0.473582 -3.757312 -0.100463 -1.672829 -0.053088 -6.879331 -38.475267 5.263202 65.196636 82.875688 55.532144 -3.187921 -10.511069 7.085895 0.157993 -0.089167 0.223719
-97.071268 67.575995 84.593896 171.883327 -38.076590 -3.487985 1.882309 19.612867 1.703877 0.243861 2.348610 0.227258 0.390002 3.838119 0.348436 1.914307 16.682955 1.743601 1.213215 14.425003 -1.187875 2.729073 -8.983634 -2.707916 -4.309702 2.365776 -4.301196 -2.423319 -7.233266 5.930741 70.634362 -87.713417 -56.456981 -0.141265 -11.348888 -12.991738 -2.340218 1.463311 -0.778692 9.943140 -1.822196 1.872903 127.157202 -79.587654 -145.010683 -6.013499 -4.855275 6.287854 -2.250689 -46.593397 8.272207 -106.887877 83.060135 -101.824115 -0.241928 -0.026369 -3.336502 -0.036054 -1.114103 -0.401254 -6.832324 -38.535259 5.288699 65.435196 82.822199 55.781128 -3.274932 -10.498976 7.046881 0.164375 -0.087772 0.226813
-97.049065 67.538504 84.651012 171.728910 -37.952396 -3.449351 2.023363 19.496691 1.780005 0.249623 2.351872 0.230212 0.388267 3.842898 0.350938 1.907882 16.701986 1.760677 1.202597 14.418874 -1.208588 2.748223 -8.876180 -2.681606 -4.318647 2.339952 -4.329703 -2.408536 -7.227879 5.944679 70.896380 -87.701766 -56.751539 -0.139413 -11.205109 -12.918133 -2.353605 1.462215 -0.766927 9.903850 -1.854360 1.867098 127.218209 -79.602557 -144.978980 -6.014501 -4.835664 6.212865 -2.140776 -46.335206 8.327991 -105.841375 83.458554 -100.718715 -0.585370 -0.776262 -2.910774 0.065308 -0.449759 -0.681337 -6.763919 -38.685835 5.406049 65.683191 82.781275 56.037085 -3.333969 -10.506609 7.018949 0.151627 -0.071573 0.212147
-97.002619 67.494216 84.717996 171.565801 -37.786609 -3.506574 2.210082 19.333076 1.965502 0.249549 2.351836 0.225373 0.393314 3.850494 0.357693 1.894490 16.701388 1.762538 1.219406 14.484248 -1.185443 2.745489 -8.814529 -2.675173 -4.313181 2.387327 -4.330206 -2.424250 -7.237559 5.972432 72.095542 -87.679965 -57.958132 -0.132052 -11.034546 -12.823716 -2.373156 1.481492 -0.737037 9.882628 -1.885511 1.849498 127.347579 -79.629236 -145.077401 -6.035246 -4.803213 6.167158 -2.153196 -46.104145 8.549698 -103.623513 83.814050 -98.428035 -0.692333 -1.523980 -2.735819 0.084280 0.137256 -0.738646 -6.785415 -38.869251 5.666022 65.883817 82.767734 56.240145 -3.318330 -10.560720 7.021644 0.081047 -0.016469 0.166977
-96.958518 67.456146 84.771812 171.517529 -37.669601 -3.610595 2.310589 19.228569 2.128990 0.231813 2.336785 0.211445 0.399236 3.856259 0.363202 1.901993 16.711202 1.781187 1.229444 14.547955 -1.166003 2.738849 -8.746021 -2.662450 -4.322506 2.385356 -4.337110 -2.447981 -7.227496 5.983812 72.473472 -87.678465 -58.345902 -0.127997 -10.803087 -12.668372 -2.402944 1.481591 -0.728838 9.871204 -1.900646 1.851570 127.363864 -79.630045 -145.099442 -6.105606 -4.749714 6.123596 -2.229411 -45.806452 8.700690 -100.686068 84.175847 -95.386042 -0.696355 -2.261978 -2.686651 0.067485 0.623735 -0.723084 -6.886242 -39.015047 5.911330 66.032059 82.806698 56.379516 -3.312527 -10.581607 7.020733 0.057926 0.007131 0.140366
-96.935551 67.427395 84.804033 171.528382 -37.628190 -3.642499 2.337195 19.209265 2.180988 0.230638 2.335849 0.212763 0.384285 3.844274 0.355224 1.914577 16.724930 1.808639 1.226746 14.592022 -1.159550 2.740368 -8.656297 -2.639840 -4.333582 2.366162 -4.343447 -2.470516 -7.219722 5.975967 72.042541 -87.723723 -57.960919 -0.098541 -10.504662 -12.430452 -2.440741 1.464467 -0.739139 9.871302 -1.905811 1.858768 127.601359 -79.673061 -145.423350 -6.134552 -4.692706 6.136496 -2.238242 -45.404989 8.644241 -97.696861 84.635155 -92.263469 -0.756786 -3.148478 -2.681067 0.040294 1.093252 -0.707788 -6.930697 -39.076555 5.974829 66.194971 82.777493 56.538156 -3.343847 -10.587466 7.021572 0.037130 0.033502 0.122489
-96.920464 67.402767 84.825650 171.639544 -37.613735 -3.691097 2.300600 19.253803 2.215510 0.227143 2.332469 0.214919 0.357408 3.818490 0.340620 1.901018 16.721016 1.819734 1.233389 14.641660 -1.147531 2.746604 -8.564303 -2.618116 -4.331999 2.335733 -4.338545 -2.497941 -7.197781 5.957501 71.890119 -87.754362 -57.829703 -0.100608 -10.151648 -12.165579 -2.469689 1.440144 -0.758905 9.871727 -1.912543 1.893254 127.786723 -79.699026 -145.659926 -6.153716 -4.633547 6.105871 -2.321250 -44.955568 8.513238 -94.474079 85.178276 -88.909697 -0.851289 -4.126279 -2.751729 -0.008051 1.525122 -0.666447 -7.034348 -39.127202 5.991929 66.385986 82.760554 56.721678 -3.385715 -10.546548 7.008564 0.040303 0.024644 0.113646
-96.900845 67.378903 84.845166 171.742343 -37.599844 -3.745184 2.224114 19.253726 2.214353 0.226613 2.331851 0.215252 0.378012 3.838050 0.359571 1.877215 16.710960 1.820944 1.232616 14.660792 -1.149780 2.770373 -8.438816 -2.579345 -4.323768 2.297473 -4.318140 -2.558823 -7.127002 5.956785 72.512093 -87.778717 -58.433869 -0.104549 -9.767109 -11.863505 -2.486014 1.413615 -0.784793 9.867715 -1.928285 1.953297 127.772054 -79.705342 -145.696971 -6.184409 -4.587760 6.073695 -2.451336 -44.524197 8.403119 -90.574805 85.729646 -84.884866 -0.969698 -5.003484 -2.935395 -0.026302 1.810079 -0.567162 -7.157709 -39.176371 6.030559 66.564003 82.779271 56.876758 -3.389247 -10.524270 7.009596 0.051604 0.017618 0.087214
-96.877978 67.349730 84.871096 171.866860 -37.540579 -3.817931 2.163711 19.238155 2.249154 0.222569 2.329070 0.216539 0.388864 3.851145 0.376563 1.818993 16.669226 1.786393 1.264901 14.744069 -1.104695 2.777910 -8.371202 -2.573153 -4.312448 2.263672 -4.273021 -2.595942 -7.084902 5.923515 71.815974 -87.815593 -57.740160 -0.107864 -9.383421 -11.544738 -2.487523 1.394291 -0.808287 9.861961 -1.940858 2.005702 127.683829 -79.708658 -145.639213 -6.228771 -4.565531 6.019442 -2.587837 -44.190882 8.279367 -86.302128 86.174077 -80.459079 -1.025662 -5.762502 -3.209459 -0.024026 1.962944 -0.422655 -7.373542 -39.299632 6.125777 66.949950 82.810024 57.203721 -3.386850 -10.442366 7.007277 0.050244 -0.036632 0.061149
-96.861428 67.321434 84.893458 171.954193 -37.488057 -3.820980 2.176356 19.277519 2.286026 0.189649 2.301732 0.203505 0.370660 3.833802 0.371076 1.772909 16.651460 1.784193 1.283436 14.805007 -1.087803 2.783517 -8.308876 -2.569239 -4.318635 2.220535 -4.273795 -2.633594 -7.059010 5.916093 71.511716 -87.825794 -57.416664 -0.141092 -9.025828 -11.248557 -2.488178 1.353789 -0.862400 9.851243 -1.975419 2.081093 127.582866 -79.738330 -145.636844 -6.205850 -4.558092 6.082937 -2.589299 -43.933050 8.055272 -82.673608 86.434027 -76.656160 -0.974312 -6.398554 -3.489574 -0.017135 1.990703 -0.275046 -7.455275 -39.387018 6.102791 66.998836 82.814190 57.244560 -3.377642 -10.420531 7.002401 0.044094 -0.029801 0.037578
-96.845445 67.292576 84.915799 172.033937 -37.431966 -3.796964 2.141089 19.265729 2.253577 0.197040 2.309253 0.212126 0.361890 3.827484 0.373092 1.748928 16.660214 1.815511 1.247261 14.789920 -1.126975 2.807793 -8.203848 -2.544072 -4.352098 2.150856 -4.294796 -2.674410 -7.032980 5.911049 71.148962 -87.831762 -57.031699 -0.168138 -8.730784 -10.973019 -2.502598 1.293424 -0.937498 9.833042 -2.032627 2.171425 127.340449 -79.768696 -145.468079 -6.224223 -4.565531 6.089870 -2.550593 -43.760567 7.813352 -80.347952 86.517595 -74.182922 -0.834831 -6.879801 -3.721578 -0.013108 1.894166 -0.154169 -7.484809 -39.469185 6.022951 67.000673 82.764138 57.285986 -3.419388 -10.403705 6.960074 0.075091 -0.004973 0.033021
